<svg width="52" height="52" viewBox="0 0 52 52" fill="none" xmlns="http://www.w3.org/2000/svg">
<path d="M49.4375 1H2.5625C1.69956 1 1 1.69956 1 2.5625V49.4375C1 50.3004 1.69956 51 2.5625 51H49.4375C50.3004 51 51 50.3004 51 49.4375V2.5625C51 1.69956 50.3004 1 49.4375 1Z" stroke="#BFD2F8" stroke-width="2" stroke-linecap="round" stroke-linejoin="round"/>
<path d="M16 15.9999H6V25.9999H16V15.9999Z" stroke="#BFD2F8" stroke-width="2" stroke-linecap="round" stroke-linejoin="round"/>
<path d="M25.9998 15.9999H15.9998V25.9999H25.9998V15.9999Z" stroke="#BFD2F8" stroke-width="2" stroke-linecap="round" stroke-linejoin="round"/>
<path d="M36 15.9999H26V25.9999H36V15.9999Z" stroke="#BFD2F8" stroke-width="2" stroke-linecap="round" stroke-linejoin="round"/>
<path d="M46.0002 15.9999H36.0002V25.9999H46.0002V15.9999Z" stroke="#BFD2F8" stroke-width="2" stroke-linecap="round" stroke-linejoin="round"/>
<path d="M46.0002 26H36.0002V36H46.0002V26Z" stroke="#BFD2F8" stroke-width="2" stroke-linecap="round" stroke-linejoin="round"/>
<path d="M36 26H26V36H36V26Z" stroke="#BFD2F8" stroke-width="2" stroke-linecap="round" stroke-linejoin="round"/>
<path d="M25.9998 26H15.9998V36H25.9998V26Z" stroke="#BFD2F8" stroke-width="2" stroke-linecap="round" stroke-linejoin="round"/>
<path d="M16 26H6V36H16V26Z" stroke="#BFD2F8" stroke-width="2" stroke-linecap="round" stroke-linejoin="round"/>
<path d="M16 36.0001H6V46.0001H16V36.0001Z" stroke="#BFD2F8" stroke-width="2" stroke-linecap="round" stroke-linejoin="round"/>
<path d="M25.9998 36.0001H15.9998V46.0001H25.9998V36.0001Z" stroke="#BFD2F8" stroke-width="2" stroke-linecap="round" stroke-linejoin="round"/>
<path d="M36 36.0001H26V46.0001H36V36.0001Z" stroke="#BFD2F8" stroke-width="2" stroke-linecap="round" stroke-linejoin="round"/>
<path fill-rule="evenodd" clip-rule="evenodd" d="M11.0002 1H16.0002V3.5C16.0002 4.88071 14.8781 6 13.5002 6C12.1195 6 11.0002 4.8779 11.0002 3.5V1Z" stroke="#BFD2F8" stroke-width="2" stroke-linecap="round" stroke-linejoin="round"/>
<path fill-rule="evenodd" clip-rule="evenodd" d="M36.0002 1H41.0002V3.5C41.0002 4.88071 39.8781 6 38.5002 6C37.1195 6 36.0002 4.8779 36.0002 3.5V1Z" stroke="#BFD2F8" stroke-width="2" stroke-linecap="round" stroke-linejoin="round"/>
</svg>
