<svg width="52" height="39" viewBox="0 0 52 39" fill="none" xmlns="http://www.w3.org/2000/svg">
<path d="M51 1H1V31H51V1Z" stroke="#FCFEFE" stroke-width="2" stroke-linecap="round" stroke-linejoin="round"/>
<path d="M48.9166 31.2083H3.08325V34.3333H48.9166V31.2083Z" stroke="#FCFEFE" stroke-width="2" stroke-linecap="round" stroke-linejoin="round"/>
<path d="M46.8334 34.3333H5.16675V37.4583H46.8334V34.3333Z" stroke="#FCFEFE" stroke-width="2" stroke-linecap="round" stroke-linejoin="round"/>
<path d="M25.7489 27.2886C30.1889 27.2886 33.7881 22.3364 33.7881 16.2276C33.7881 10.1188 30.1889 5.16669 25.7489 5.16669C21.309 5.16669 17.7097 10.1188 17.7097 16.2276C17.7097 22.3364 21.309 27.2886 25.7489 27.2886Z" stroke="#FCFEFE" stroke-width="2" stroke-linecap="round" stroke-linejoin="round"/>
<path fill-rule="evenodd" clip-rule="evenodd" d="M9.98429 27.2886H42.0155C42.0155 24.2342 44.4057 21.7581 47.3541 21.7581V10.6972C44.4057 10.6972 42.0155 8.22108 42.0155 5.16669H9.98429C9.98429 8.22108 7.59415 10.6972 4.64575 10.6972V21.7581C7.59415 21.7581 9.98429 24.2342 9.98429 27.2886Z" stroke="#FCFEFE" stroke-width="2" stroke-linecap="round" stroke-linejoin="round"/>
<path d="M12.1826 17.8077C13.0151 17.8077 13.69 17.1003 13.69 16.2276C13.69 15.3549 13.0151 14.6475 12.1826 14.6475C11.3502 14.6475 10.6753 15.3549 10.6753 16.2276C10.6753 17.1003 11.3502 17.8077 12.1826 17.8077Z" stroke="#FCFEFE" stroke-width="2" stroke-linecap="round" stroke-linejoin="round"/>
<path d="M38.8125 17.8077C39.645 17.8077 40.3199 17.1003 40.3199 16.2276C40.3199 15.3549 39.645 14.6475 38.8125 14.6475C37.98 14.6475 37.3052 15.3549 37.3052 16.2276C37.3052 17.1003 37.98 17.8077 38.8125 17.8077Z" stroke="#FCFEFE" stroke-width="2" stroke-linecap="round" stroke-linejoin="round"/>
</svg>
