<svg width="184" height="58" viewBox="0 0 184 58" fill="none" xmlns="http://www.w3.org/2000/svg">
<path d="M5.21484 8.5625H10.1758L17.4805 29.4414L24.7852 8.5625H29.7461L19.4727 37H15.4883L5.21484 8.5625ZM2.53906 8.5625H7.48047L8.37891 28.9141V37H2.53906V8.5625ZM27.4805 8.5625H32.4414V37H26.582V28.9141L27.4805 8.5625ZM46.9531 37.3906C45.3125 37.3906 43.8411 37.1302 42.5391 36.6094C41.237 36.0755 40.1302 35.3398 39.2188 34.4023C38.3203 33.4648 37.6302 32.3776 37.1484 31.1406C36.6667 29.8906 36.4258 28.5625 36.4258 27.1562V26.375C36.4258 24.7734 36.6536 23.3086 37.1094 21.9805C37.5651 20.6523 38.2161 19.5 39.0625 18.5234C39.9219 17.5469 40.9635 16.7982 42.1875 16.2773C43.4115 15.7435 44.7917 15.4766 46.3281 15.4766C47.8255 15.4766 49.1536 15.724 50.3125 16.2188C51.4714 16.7135 52.4414 17.4167 53.2227 18.3281C54.0169 19.2396 54.6159 20.3333 55.0195 21.6094C55.4232 22.8724 55.625 24.2786 55.625 25.8281V28.1719H38.8281V24.4219H50.0977V23.9922C50.0977 23.2109 49.9544 22.5143 49.668 21.9023C49.3945 21.2773 48.9779 20.7826 48.418 20.418C47.8581 20.0534 47.1419 19.8711 46.2695 19.8711C45.5273 19.8711 44.8893 20.0339 44.3555 20.3594C43.8216 20.6849 43.3854 21.1406 43.0469 21.7266C42.7214 22.3125 42.474 23.0026 42.3047 23.7969C42.1484 24.5781 42.0703 25.4375 42.0703 26.375V27.1562C42.0703 28.0026 42.1875 28.7839 42.4219 29.5C42.6693 30.2161 43.0143 30.8346 43.457 31.3555C43.9128 31.8763 44.4596 32.2799 45.0977 32.5664C45.7487 32.8529 46.4844 32.9961 47.3047 32.9961C48.3203 32.9961 49.2643 32.8008 50.1367 32.4102C51.0221 32.0065 51.7839 31.401 52.4219 30.5938L55.1562 33.5625C54.7135 34.2005 54.1081 34.8125 53.3398 35.3984C52.5846 35.9844 51.6732 36.4661 50.6055 36.8438C49.5378 37.2083 48.3203 37.3906 46.9531 37.3906ZM71.3086 32.3906V7H76.9727V37H71.875L71.3086 32.3906ZM57.9492 26.6875V26.2773C57.9492 24.6628 58.1315 23.1979 58.4961 21.8828C58.8607 20.5547 59.3945 19.4154 60.0977 18.4648C60.8008 17.5143 61.6667 16.7786 62.6953 16.2578C63.724 15.737 64.8958 15.4766 66.2109 15.4766C67.4479 15.4766 68.5286 15.737 69.4531 16.2578C70.3906 16.7786 71.1849 17.5208 71.8359 18.4844C72.5 19.4349 73.0339 20.5612 73.4375 21.8633C73.8411 23.1523 74.1341 24.5651 74.3164 26.1016V27C74.1341 28.4714 73.8411 29.8385 73.4375 31.1016C73.0339 32.3646 72.5 33.4714 71.8359 34.4219C71.1849 35.3594 70.3906 36.0885 69.4531 36.6094C68.5156 37.1302 67.4219 37.3906 66.1719 37.3906C64.8568 37.3906 63.6849 37.1237 62.6562 36.5898C61.6406 36.056 60.7812 35.3073 60.0781 34.3438C59.388 33.3802 58.8607 32.2474 58.4961 30.9453C58.1315 29.6432 57.9492 28.224 57.9492 26.6875ZM63.5742 26.2773V26.6875C63.5742 27.5599 63.6393 28.3737 63.7695 29.1289C63.9128 29.8841 64.1406 30.5547 64.4531 31.1406C64.7786 31.7135 65.1953 32.1628 65.7031 32.4883C66.224 32.8008 66.8555 32.957 67.5977 32.957C68.5612 32.957 69.3555 32.7422 69.9805 32.3125C70.6055 31.8698 71.0807 31.2643 71.4062 30.4961C71.7448 29.7279 71.9401 28.8424 71.9922 27.8398V25.2812C71.9531 24.4609 71.8359 23.7253 71.6406 23.0742C71.4583 22.4102 71.1849 21.8438 70.8203 21.375C70.4688 20.9062 70.026 20.5417 69.4922 20.2812C68.9714 20.0208 68.3529 19.8906 67.6367 19.8906C66.9076 19.8906 66.2826 20.0599 65.7617 20.3984C65.2409 20.724 64.8177 21.1732 64.4922 21.7461C64.1797 22.319 63.9453 22.9961 63.7891 23.7773C63.6458 24.5456 63.5742 25.3789 63.5742 26.2773Z" fill="#007BFF"/>
<path d="M93.7695 8.5625V37H88.9062V8.5625H93.7695ZM102.695 8.5625V12.4688H80.0586V8.5625H102.695ZM109.297 19.8906V37H104.59V15.8672H109.082L109.297 19.8906ZM115.762 15.7305L115.723 20.1055C115.436 20.0534 115.124 20.0143 114.785 19.9883C114.46 19.9622 114.134 19.9492 113.809 19.9492C113.001 19.9492 112.292 20.0664 111.68 20.3008C111.068 20.5221 110.553 20.8477 110.137 21.2773C109.733 21.694 109.421 22.2018 109.199 22.8008C108.978 23.3997 108.848 24.0703 108.809 24.8125L107.734 24.8906C107.734 23.5625 107.865 22.332 108.125 21.1992C108.385 20.0664 108.776 19.0703 109.297 18.2109C109.831 17.3516 110.495 16.681 111.289 16.1992C112.096 15.7174 113.027 15.4766 114.082 15.4766C114.368 15.4766 114.674 15.5026 115 15.5547C115.339 15.6068 115.592 15.6654 115.762 15.7305ZM131.426 32.0195V15.8672H136.152V37H131.699L131.426 32.0195ZM132.09 27.625L133.672 27.5859C133.672 29.0052 133.516 30.3138 133.203 31.5117C132.891 32.6966 132.409 33.7318 131.758 34.6172C131.107 35.4896 130.273 36.1732 129.258 36.668C128.242 37.1497 127.025 37.3906 125.605 37.3906C124.577 37.3906 123.633 37.2409 122.773 36.9414C121.914 36.6419 121.172 36.1797 120.547 35.5547C119.935 34.9297 119.46 34.1159 119.121 33.1133C118.783 32.1107 118.613 30.9128 118.613 29.5195V15.8672H123.32V29.5586C123.32 30.3268 123.411 30.9714 123.594 31.4922C123.776 32 124.023 32.4102 124.336 32.7227C124.648 33.0352 125.013 33.2565 125.43 33.3867C125.846 33.5169 126.289 33.582 126.758 33.582C128.099 33.582 129.154 33.3216 129.922 32.8008C130.703 32.2669 131.257 31.5508 131.582 30.6523C131.921 29.7539 132.09 28.7448 132.09 27.625ZM152.832 31.2773C152.832 30.8086 152.715 30.3854 152.48 30.0078C152.246 29.6172 151.797 29.2656 151.133 28.9531C150.482 28.6406 149.518 28.3542 148.242 28.0938C147.122 27.8464 146.094 27.5534 145.156 27.2148C144.232 26.8633 143.438 26.4401 142.773 25.9453C142.109 25.4505 141.595 24.8646 141.23 24.1875C140.866 23.5104 140.684 22.7292 140.684 21.8438C140.684 20.9844 140.872 20.1706 141.25 19.4023C141.628 18.6341 142.168 17.957 142.871 17.3711C143.574 16.7852 144.427 16.3229 145.43 15.9844C146.445 15.6458 147.578 15.4766 148.828 15.4766C150.599 15.4766 152.116 15.776 153.379 16.375C154.655 16.9609 155.632 17.7617 156.309 18.7773C156.986 19.7799 157.324 20.9128 157.324 22.1758H152.617C152.617 21.6159 152.474 21.0951 152.188 20.6133C151.914 20.1185 151.497 19.7214 150.938 19.4219C150.378 19.1094 149.674 18.9531 148.828 18.9531C148.021 18.9531 147.35 19.0833 146.816 19.3438C146.296 19.5911 145.905 19.9167 145.645 20.3203C145.397 20.724 145.273 21.1667 145.273 21.6484C145.273 22 145.339 22.319 145.469 22.6055C145.612 22.8789 145.846 23.1328 146.172 23.3672C146.497 23.5885 146.94 23.7969 147.5 23.9922C148.073 24.1875 148.789 24.3763 149.648 24.5586C151.263 24.8971 152.65 25.3333 153.809 25.8672C154.98 26.388 155.879 27.0651 156.504 27.8984C157.129 28.7188 157.441 29.7604 157.441 31.0234C157.441 31.9609 157.24 32.8203 156.836 33.6016C156.445 34.3698 155.872 35.0404 155.117 35.6133C154.362 36.1732 153.457 36.6094 152.402 36.9219C151.361 37.2344 150.189 37.3906 148.887 37.3906C146.973 37.3906 145.352 37.0521 144.023 36.375C142.695 35.6849 141.686 34.806 140.996 33.7383C140.319 32.6576 139.98 31.5378 139.98 30.3789H144.531C144.583 31.2513 144.824 31.9479 145.254 32.4688C145.697 32.9766 146.243 33.3477 146.895 33.582C147.559 33.8034 148.242 33.9141 148.945 33.9141C149.792 33.9141 150.501 33.8034 151.074 33.582C151.647 33.3477 152.083 33.0352 152.383 32.6445C152.682 32.2409 152.832 31.7852 152.832 31.2773ZM171.25 15.8672V19.3047H159.336V15.8672H171.25ZM162.773 10.6914H167.48V31.1602C167.48 31.8112 167.572 32.3125 167.754 32.6641C167.949 33.0026 168.216 33.2305 168.555 33.3477C168.893 33.4648 169.29 33.5234 169.746 33.5234C170.072 33.5234 170.384 33.5039 170.684 33.4648C170.983 33.4258 171.224 33.3867 171.406 33.3477L171.426 36.9414C171.035 37.0586 170.579 37.1628 170.059 37.2539C169.551 37.3451 168.965 37.3906 168.301 37.3906C167.22 37.3906 166.263 37.2018 165.43 36.8242C164.596 36.4336 163.945 35.8021 163.477 34.9297C163.008 34.0573 162.773 32.8984 162.773 31.4531V10.6914Z" fill="#27AE60"/>
</svg>
