<svg width="42" height="33" viewBox="0 0 42 33" fill="none" xmlns="http://www.w3.org/2000/svg">
<path d="M25.159 28.2659C25.765 27.9794 26.2054 27.5051 26.3835 26.9474C26.5616 26.3897 26.4628 25.7943 26.1087 25.2921L24.7737 23.3985C24.4197 22.8963 23.8394 22.5284 23.1605 22.3759C22.4817 22.2234 21.7599 22.2986 21.154 22.5851C16.5845 24.7456 13.9145 20.9584 12.5795 19.0648C11.2445 17.1712 8.57448 13.384 13.1439 11.2236C13.7499 10.9371 14.1904 10.4628 14.3685 9.90509C14.5466 9.3474 14.4477 8.75194 14.0936 8.24973L12.7586 6.35614C12.4046 5.85393 11.8243 5.48609 11.1455 5.33356C10.4666 5.18102 9.74485 5.25628 9.1389 5.54277C3.42709 8.24334 1.33501 11.7573 8.01006 21.2252C14.6851 30.6932 19.4472 30.9664 25.159 28.2659Z" stroke="#1F2B6C" stroke-width="2" stroke-linecap="round" stroke-linejoin="round"/>
<path d="M37.3184 20.4463C38.5321 16.638 37.8558 12.5727 35.4384 9.14369C33.0209 5.71469 29.0599 3.20248 24.4256 2.15898M30.3233 18.8745C30.6849 17.7435 30.7716 16.5625 30.5786 15.399C30.3856 14.2356 29.9167 13.1125 29.1986 12.0939C28.4804 11.0753 27.5272 10.1812 26.3933 9.46256C25.2595 8.74398 23.9672 8.21501 22.5903 7.90589M23.3658 17.2912C23.6084 16.5292 23.473 15.7158 22.9893 15.0297C22.5056 14.3435 21.7131 13.8408 20.7859 13.6319" stroke="#159EEC" stroke-width="2" stroke-linecap="round" stroke-linejoin="round"/>
</svg>
