<svg width="92" height="21" viewBox="0 0 92 21" fill="none" xmlns="http://www.w3.org/2000/svg">
<path d="M12 0C5.3725 0 0 4.68004 0 10.4533C0 16.2266 5.3725 20.9067 12 20.9067C18.6275 20.9067 24 16.2266 24 10.4533C24 4.68004 18.6275 0 12 0ZM9.0625 14.786H6.6325V7.97393H9.0625V14.786ZM7.8325 7.13767C7.065 7.13767 6.56875 6.664 6.56875 6.07818C6.56875 5.48038 7.08 5.02087 7.86375 5.02087C8.6475 5.02087 9.1275 5.48038 9.1425 6.07818C9.1425 6.664 8.6475 7.13767 7.8325 7.13767ZM17.9375 14.786H15.5075V11.0108C15.5075 10.1321 15.155 9.5354 14.2763 9.5354C13.605 9.5354 13.2063 9.93938 13.03 10.3281C12.965 10.4664 12.9488 10.6624 12.9488 10.8573V14.7849H10.5175V10.1463C10.5175 9.29584 10.4862 8.5848 10.4537 7.97284H12.565L12.6763 8.91909H12.725C13.045 8.47482 13.8288 7.81931 15.14 7.81931C16.7388 7.81931 17.9375 8.75249 17.9375 10.7582V14.786V14.786Z" fill="#1F2B6C"/>
<path d="M84.8725 7.2422C84.7684 7.00727 84.6089 6.79394 84.4044 6.61597C84.1999 6.43799 83.9548 6.2993 83.685 6.20884C83.3135 6.08898 82.9211 6.02563 82.525 6.02155C81.8663 5.99542 81.6688 5.98889 80 5.98889C78.3313 5.98889 78.1338 5.99542 77.475 6.02155C77.0785 6.02551 76.6856 6.08886 76.3138 6.20884C76.0441 6.29955 75.7992 6.43846 75.5949 6.61663C75.3906 6.79479 75.2313 7.00826 75.1275 7.24329C74.9899 7.5669 74.9172 7.9087 74.9125 8.25377C74.8825 8.82762 74.875 8.99966 74.875 10.4533C74.875 11.907 74.8825 12.079 74.9125 12.6529C74.917 12.9983 74.9898 13.3405 75.1275 13.6645C75.2316 13.8994 75.3911 14.1127 75.5956 14.2907C75.8002 14.4687 76.0452 14.6074 76.315 14.6978C76.6865 14.8177 77.0789 14.881 77.475 14.8851C78.1338 14.9112 78.3313 14.9167 80 14.9167C81.6688 14.9167 81.8663 14.9112 82.525 14.884C82.9215 14.8804 83.3143 14.8174 83.6863 14.6978C83.9559 14.6071 84.2008 14.4682 84.4051 14.29C84.6095 14.1119 84.7687 13.8984 84.8725 13.6634C85.0101 13.3398 85.0828 12.998 85.0875 12.6529C85.1175 12.079 85.1238 11.907 85.1238 10.4533C85.1238 8.99966 85.1175 8.82762 85.0863 8.25377C85.0821 7.9084 85.0098 7.56622 84.8725 7.2422V7.2422ZM80 13.2496C79.3651 13.2496 78.7445 13.0856 78.2166 12.7783C77.6887 12.4711 77.2773 12.0344 77.0344 11.5234C76.7914 11.0125 76.7278 10.4502 76.8517 9.9078C76.9755 9.36538 77.2813 8.86714 77.7302 8.47607C78.1791 8.08501 78.7511 7.81869 79.3738 7.71079C79.9964 7.6029 80.6419 7.65827 81.2284 7.86992C81.815 8.08156 82.3163 8.43996 82.669 8.89981C83.0217 9.35965 83.21 9.90028 83.21 10.4533C83.21 11.1949 82.8718 11.9062 82.2698 12.4306C81.6678 12.955 80.8513 13.2496 80 13.2496ZM83.3363 8.20042C83.1879 8.20042 83.0429 8.1621 82.9196 8.09031C82.7962 8.01852 82.7001 7.91649 82.6433 7.79711C82.5866 7.67773 82.5717 7.54636 82.6007 7.41963C82.6296 7.29289 82.701 7.17648 82.8059 7.08511C82.9108 6.99374 83.0444 6.93152 83.1899 6.90631C83.3354 6.8811 83.4862 6.89404 83.6233 6.94349C83.7603 6.99293 83.8774 7.07667 83.9599 7.18411C84.0423 7.29155 84.0863 7.41787 84.0863 7.54709C84.0863 7.72036 84.0072 7.88654 83.8666 8.00906C83.7259 8.13159 83.5352 8.20042 83.3363 8.20042V8.20042ZM82.0838 10.4533C82.0838 10.8123 81.9615 11.1633 81.7326 11.4618C81.5036 11.7603 81.1782 11.9929 80.7974 12.1303C80.4167 12.2677 79.9977 12.3037 79.5935 12.2336C79.1893 12.1636 78.818 11.9907 78.5266 11.7369C78.2352 11.483 78.0367 11.1596 77.9563 10.8075C77.8759 10.4553 77.9172 10.0904 78.0749 9.75869C78.2326 9.42701 78.4997 9.14352 78.8423 8.94407C79.185 8.74461 79.5879 8.63815 80 8.63815C80.5526 8.63815 81.0827 8.82939 81.4734 9.16981C81.8642 9.51022 82.0838 9.97192 82.0838 10.4533V10.4533ZM80 0C77.6266 0 75.3066 0.613077 73.3332 1.7617C71.3598 2.91033 69.8217 4.54292 68.9135 6.45301C68.0052 8.36311 67.7676 10.4649 68.2306 12.4927C68.6936 14.5204 69.8365 16.383 71.5147 17.845C73.193 19.3069 75.3311 20.3025 77.6589 20.7058C79.9867 21.1091 82.3995 20.9021 84.5922 20.1109C86.7849 19.3198 88.6591 17.9799 89.9776 16.2609C91.2962 14.5418 92 12.5208 92 10.4533C92 7.68093 90.7357 5.02209 88.4853 3.06171C86.2348 1.10133 83.1826 0 80 0V0ZM86.2125 12.6975C86.2019 13.1493 86.1034 13.5963 85.9213 14.0194C85.7607 14.381 85.5152 14.7094 85.2005 14.9836C84.8858 15.2577 84.5089 15.4716 84.0938 15.6114C83.6084 15.77 83.0957 15.8558 82.5775 15.8651C81.91 15.8912 81.6975 15.8978 80 15.8978C78.3025 15.8978 78.09 15.8912 77.4225 15.8651C76.9043 15.8558 76.3916 15.77 75.9063 15.6114C75.4912 15.4716 75.1142 15.2577 74.7995 14.9836C74.4848 14.7094 74.2393 14.381 74.0788 14.0194C73.8967 13.5967 73.7982 13.1501 73.7875 12.6986C73.7575 12.1172 73.75 11.932 73.75 10.4533C73.75 8.97462 73.7575 8.78951 73.7875 8.20804C73.7978 7.75666 73.8959 7.31006 74.0775 6.88722C74.238 6.52532 74.4836 6.19665 74.7986 5.9223C75.1135 5.64796 75.4908 5.43401 75.9063 5.29418C76.3917 5.13596 76.9043 5.05055 77.4225 5.04155C78.09 5.01542 78.3025 5.00889 80 5.00889C81.6975 5.00889 81.91 5.01542 82.5775 5.04155C83.0957 5.05055 83.6083 5.13596 84.0938 5.29418C84.509 5.43414 84.886 5.64815 85.2007 5.92248C85.5155 6.19682 85.7609 6.52542 85.9213 6.88722C86.1033 7.31 86.2018 7.7566 86.2125 8.20804C86.2425 8.78951 86.25 8.97462 86.25 10.4533C86.25 11.932 86.2425 12.1172 86.2125 12.6986V12.6975Z" fill="#1F2B6C"/>
<path d="M46 0C39.3725 0 34 4.68004 34 10.4533C34 16.2266 39.3725 20.9067 46 20.9067C52.6275 20.9067 58 16.2266 58 10.4533C58 4.68004 52.6275 0 46 0ZM48.8425 7.22369H47.0388C46.825 7.22369 46.5875 7.46869 46.5875 7.79427V8.92889H48.8438L48.5025 10.547H46.5875V15.4045H44.4588V10.547H42.5275V8.92889H44.4588V7.9772C44.4588 6.61173 45.5463 5.50215 47.0388 5.50215H48.8425V7.22369V7.22369Z" fill="#1F2B6C"/>
</svg>
