<svg width="52" height="45" viewBox="0 0 52 45" fill="none" xmlns="http://www.w3.org/2000/svg">
<path fill-rule="evenodd" clip-rule="evenodd" d="M17.7482 14.5943C17.3838 14.8187 16.6971 16.2275 17.0078 17.4635C17.4697 19.3017 19.113 20.0192 19.113 20.0192C19.113 20.0192 21.6839 23.4136 21.6839 25.3876C21.6839 27.3617 21.6839 28.1286 20.9949 29.7755C20.306 31.4223 6.78238 33.3965 6.20825 43.1052H25.8919L45.7916 43.1074C45.2175 33.3986 31.6939 31.4245 31.0049 29.7776C30.316 28.1307 30.316 27.3638 30.316 25.3898C30.316 23.4157 32.8868 20.0213 32.8868 20.0213C32.8868 20.0213 34.5301 19.3039 34.9921 17.4656C35.3027 16.2296 34.6161 14.8209 34.2516 14.5964C35.2259 11.6236 37.1717 1.37486 26.108 1.00548C26.0588 0.998496 26.0099 0.999742 25.9612 1.00118C14.8281 1.37274 16.774 11.6215 17.7482 14.5943Z" stroke="#1F2B6C" stroke-width="2" stroke-linecap="round" stroke-linejoin="round"/>
<path fill-rule="evenodd" clip-rule="evenodd" d="M1 36.6366C4.24791 34.3593 8.29741 33.4756 8.6274 32.6868C9.17278 31.3831 9.17278 30.776 9.17278 29.2133C9.17278 27.6505 7.13764 24.9634 7.13764 24.9634C7.13764 24.9634 5.83677 24.3955 5.47104 22.9403C5.22513 21.9618 5.7687 20.8466 6.05724 20.6689C5.28596 18.3156 3.74557 10.2024 12.5588 9.90825C12.5974 9.90711 12.6361 9.90613 12.675 9.91165C14.5757 9.97511 15.9914 10.4069 17.0352 11.0682C17.1712 12.5373 17.4931 13.8155 17.7483 14.5943C17.3838 14.8187 16.6972 16.2275 17.0078 17.4635C17.4698 19.3017 19.1131 20.0191 19.1131 20.0191C19.1131 20.0191 19.1667 20.0899 19.2584 20.2169C19.2117 20.3851 19.1655 20.5371 19.1218 20.6706C19.4103 20.8483 19.9539 21.9635 19.7079 22.942C19.3422 24.3972 18.0413 24.9651 18.0413 24.9651C18.0413 24.9651 16.0062 27.6522 16.0062 29.2149C16.0062 30.5178 16.0062 31.1564 16.3222 32.0882C12.1215 33.9144 6.57168 36.9609 6.20833 43.1052H25.8919L45.7917 43.1073C45.4215 36.8482 39.6693 33.8038 35.4437 31.9892C35.7353 31.0966 35.7353 30.4578 35.7353 29.1895C35.7353 27.6268 33.7001 24.9397 33.7001 24.9397C33.7001 24.9397 32.3993 24.3717 32.0335 22.9165C31.7876 21.9381 32.3312 20.8229 32.6197 20.6452C32.6015 20.5896 32.5829 20.5309 32.564 20.4691C32.7606 20.188 32.8869 20.0213 32.8869 20.0213C32.8869 20.0213 34.5302 19.3038 34.9922 17.4656C35.3028 16.2296 34.6162 14.8208 34.2517 14.5964C34.5171 13.7865 34.8546 12.4366 34.9816 10.8936C36.0056 10.3162 37.3557 9.94342 39.1213 9.88449C39.1599 9.88335 39.1986 9.88237 39.2375 9.8879C47.9959 10.1803 46.4555 18.2935 45.6842 20.6469C45.9728 20.8245 46.5164 21.9398 46.2704 22.9182C45.9047 24.3734 44.6038 24.9413 44.6038 24.9413C44.6038 24.9413 42.5687 27.6285 42.5687 29.1912C42.5687 30.7539 42.5687 31.361 43.1141 32.6647C43.4529 33.4746 47.7126 34.3845 51 36.8V43.2165L39.0665 43.2153H28.2556C28.2561 43.2237 28.2566 43.2322 28.2571 43.2407L12.504 43.239H1V36.6366Z" stroke="#1F2B6C" stroke-width="2" stroke-linecap="round" stroke-linejoin="round"/>
</svg>
